<svg xmlns="http://www.w3.org/2000/svg" xmlns:xlink="http://www.w3.org/1999/xlink" viewBox="0,0,256,256" width="16px" height="16px" fill-rule="nonzero"><g fill="#000000" fill-rule="nonzero" stroke="none" stroke-width="1" stroke-linecap="butt" stroke-linejoin="miter" stroke-miterlimit="10" stroke-dasharray="" stroke-dashoffset="0" font-family="none" font-weight="none" font-size="none" text-anchor="none" style="mix-blend-mode: normal"><g transform="scale(16,16)"><path d="M2.5,2c-0.82422,0 -1.5,0.67578 -1.5,1.5v9c0,0.82422 0.67578,1.5 1.5,1.5h11c0.82422,0 1.5,-0.67578 1.5,-1.5v-7c0,-0.82422 -0.67578,-1.5 -1.5,-1.5h-6.70312l-0.65234,-1.21094c-0.26172,-0.48828 -0.76953,-0.78906 -1.32031,-0.78906zM2.5,3h2.32422c0.18359,0 0.35156,0.10156 0.44141,0.26172l0.9375,1.73828h7.29688c0.28125,0 0.5,0.21875 0.5,0.5v1.5h-8.78125c-0.64062,0 -1.21875,0.41406 -1.42187,1.02344l-1.61719,4.85547c-0.10937,-0.08984 -0.17969,-0.22266 -0.17969,-0.37891v-9c0,-0.28125 0.21875,-0.5 0.5,-0.5zM5.21875,8h8.78125v4.5c0,0.28125 -0.21875,0.5 -0.5,0.5h-10.30469l1.55078,-4.65625c0.07031,-0.20703 0.25781,-0.34375 0.47266,-0.34375z"></path></g></g></svg>